# xmcd
#
# Track frame offsets:
#	150
#	12742
#	20547
#	24912
#	29895
#	37930
#	42665
#	55552
#	64647
#	77237
#	81245
#	87522
#	101712
#	113817
#	123860
#	129322
#	134072
#	145480
#	150132
#	154037
#	159662
#	168737
#	177307
#	186865
#	192700
#	197847
#	202200
#	210735
#	219547
#	230450
#	237750
#	243090
#	249472
#	260800
#
# Disc length: 3570 seconds
#
# Revision: 2
# Processed by: cddbd v1.4PL0 Copyright (c) Steve Scherf et al.
# Submitted via: MusicWizard 6.0.2
#
DISCID=f10df022
DTITLE=Johnny Horton - Johnny Horton 1956-1960  Vol. 4
DYEAR=1991
DGENRE=Country/Rock
TTITLE0=The Vanishing Race
TTITLE1=Broken Hearted Gypsy
TTITLE2=That Boy Got The Habit
TTITLE3=Hot In The Sugarcane Field
TTITLE4=You Don't Move Me Baby Anymore
TTITLE5=The Church By The Side Of The Road
TTITLE6=I Just Don't Like This Kind Of Livin
TTITLE7=Take It Like A Man
TTITLE8=Hank And Joe And Me
TTITLE9=The Golden Rocket
TTITLE10=Old Blind Barnabas
TTITLE11=Empty Bed Blues
TTITLE12=Rock Island Line
TTITLE13=Shake, Rattle And Roll
TTITLE14=A-Sleeping At The Foot Of The Bed
TTITLE15=Old Dan Tucker
TTITLE16=The Gosh Darn Wheel
TTITLE17=From Memphis To Mobile
TTITLE18=Back Up Train
TTITLE19=Schottische In Texas
TTITLE20=Take It LIke A Man
TTITLE21=That Boy Got The Habit
TTITLE22=Mye Heart Stopped, Trembled And Died
TTITLE23=Alley Girl Ways
TTITLE24=How You Gonna Make It
TTITLE25=Witch Walking Baby
TTITLE26=Down That River Road
TTITLE27=Big Wheels Rollin'
TTITLE28=I Got A Slow Leak In My Heart
TTITLE29=You Don't Move Me Baby Anymore
TTITLE30=What Will I Do Without You
TTITLE31=Janey
TTITLE32=Streets Of Dodge
TTITLE33=Give Me Back My Picture And You Can Keep The Frame If  1991
EXTD=
EXTT0=
EXTT1=
EXTT2=
EXTT3=
EXTT4=
EXTT5=
EXTT6=
EXTT7=
EXTT8=
EXTT9=
EXTT10=
EXTT11=
EXTT12=
EXTT13=
EXTT14=
EXTT15=
EXTT16=
EXTT17=
EXTT18=
EXTT19=
EXTT20=
EXTT21=
EXTT22=
EXTT23=
EXTT24=
EXTT25=
EXTT26=
EXTT27=
EXTT28=
EXTT29=
EXTT30=
EXTT31=
EXTT32=
EXTT33=
PLAYORDER=
